# xmcd
#
# Track frame offsets:
# 150
# 21054
# 37574
# 69845
# 83895
# 100549
# 118847
# 136331
# 161581
# 176859
# 190898
# 203604
# 224181
# 233675
# 253888
# 269001
# 288567
# 304024
#
# Disc length: 4302 seconds
#
# Revision: 0
# Processed by: cddbd v1.5.2PL0 Copyright (c) Steve Scherf et al.
# Submitted via: Audion 3.0.2 (http://www.panic.com/audion/)
#
DISCID=0210cc12
DTITLE=Fine Young Cannibals - now2
DYEAR=1900
DGENRE=
TTITLE0=Moondance
TTITLE1=Moonlight Shadow
TTITLE2=No Woman, No Cry (Live)
TTITLE3=Parklife
TTITLE4=Rotterdam (Or Anywhere)
TTITLE5=Say It Ain't So
TTITLE6=Say What You Want
TTITLE7=Snow (Hey Oh)
TTITLE8=Suddenly I See
TTITLE9=Tears Dry On Their Own
TTITLE10=Tell Me What
TTITLE11=The House of the Rising Sun
TTITLE12=Too Much Too Young
TTITLE13=Who Am I
TTITLE14=Wisemen (New Radio Version)
TTITLE15=Wonderwall
TTITLE16=You're Beautiful
TTITLE17=Your Game
EXTD=
EXTT0=
EXTT1=
EXTT2=
EXTT3=
EXTT4=
EXTT5=
EXTT6=
EXTT7=
EXTT8=
EXTT9=
EXTT10=
EXTT11=
EXTT12=
EXTT13=
EXTT14=
EXTT15=
EXTT16=
EXTT17=
PLAYORDER=
